<svg xmlns="http://www.w3.org/2000/svg" viewBox="0 0 256 256" role="img" aria-label="BetterCals">
  <defs>
    <linearGradient id="bcHeart" x1="0" y1="0" x2="0" y2="1">
      <stop offset="0%" stop-color="#F36A5B"/>
      <stop offset="60%" stop-color="#E24B4B"/>
      <stop offset="100%" stop-color="#C93A45"/>
    </linearGradient>
    <linearGradient id="bcHeartHighlight" x1="0.2" y1="0" x2="0.9" y2="1">
      <stop offset="0%" stop-color="#FFD3C7" stop-opacity="0.75"/>
      <stop offset="70%" stop-color="#FFFFFF" stop-opacity="0"/>
    </linearGradient>
  </defs>

  <path d="M128 220 C96 194 56 160 56 116 C56 88 74 68 100 68 C114 68 124 74 128 82 C132 74 142 68 156 68 C182 68 200 88 200 116 C200 160 160 194 128 220 Z" fill="url(#bcHeart)"/>
  <path d="M98 84 C86 90 78 102 78 116 C78 140 100 162 128 186 C112 168 100 148 100 126 C100 110 108 98 118 90 C110 84 104 82 98 84 Z" fill="url(#bcHeartHighlight)"/>
</svg>

