<svg xmlns="http://www.w3.org/2000/svg" viewBox="0 0 256 256" role="img" aria-label="BetterCals">
  <path d="M176 66 C206 94 220 132 210 170 C198 214 150 232 118 210 C122 170 140 112 176 66 Z" fill="#6F8B73"/>
  <path d="M186 84 C203 106 209 132 204 158 C196 190 167 204 145 196 C151 165 162 120 186 84 Z" fill="#5E7865" opacity="0.7"/>

  <path d="M106 26 C142 66 166 100 166 142 C166 202 126 228 88 228 C58 228 38 206 38 178 C38 134 78 106 96 74 C110 50 112 38 106 26 Z" fill="#F28C2B"/>
  <path d="M122 54 C146 84 150 110 140 134 C124 176 114 194 122 220 C92 202 82 172 86 148 C92 114 120 100 126 76 C128 68 127 60 122 54 Z" fill="#E56B22" opacity="0.95"/>
  <path d="M138 64 C154 94 152 116 140 136 C124 164 118 184 126 206 C108 192 104 172 110 154 C118 132 136 120 140 102 C144 86 144 74 138 64 Z" fill="#D94A2A" opacity="0.92"/>
</svg>

